<?xml version="1.0" encoding="utf-8"?>
<!-- Generator: Adobe Illustrator 17.1.0, SVG Export Plug-In . SVG Version: 6.00 Build 0)  -->
<!DOCTYPE svg PUBLIC "-//W3C//DTD SVG 1.1//EN" "http://www.w3.org/Graphics/SVG/1.1/DTD/svg11.dtd">
<svg version="1.1" id="Calque_1" xmlns="http://www.w3.org/2000/svg" xmlns:xlink="http://www.w3.org/1999/xlink" x="0px" y="0px"
	 viewBox="0 0 1000 1000" enable-background="new 0 0 1000 1000" xml:space="preserve">
<rect display="none" fill="#406CAA" width="1000" height="1000"/>
<rect display="none" fill="#E63A4B" width="1000" height="1000"/>
<rect fill="#56C1E8" width="1000" height="1000"/>
<g display="none">
	<path id="facebook-icon_1_" display="inline" fill="#FFFFFF" d="M467.7,455.3h-27.1v44.3h27.1v130.1h52.2V499.1h36.4l3.9-43.7
		h-40.3c0,0,0-16.3,0-24.9c0-10.3,2.1-14.4,12-14.4c8,0,28.2,0,28.2,0v-45.4c0,0-29.8,0-36.1,0c-38.8,0-56.3,17.1-56.3,49.8
		C467.7,449,467.7,455.3,467.7,455.3z"/>
</g>
<g display="none">
	<path id="pinterest-icon_1_" display="inline" fill="#FFFFFF" d="M506.4,370.6c-70.7,0-106.3,50.7-106.3,93
		c0,25.6,9.7,48.4,30.5,56.8c3.4,1.4,6.5,0,7.4-3.7c0.7-2.6,2.3-9.2,3-11.9c1-3.7,0.6-5-2.1-8.3c-6-7.1-9.8-16.2-9.8-29.2
		c0-37.6,28.1-71.3,73.3-71.3c40,0,61.9,24.4,61.9,57c0,42.9-19,79.1-47.2,79.1c-15.6,0-27.2-12.9-23.5-28.7
		c4.5-18.9,13.1-39.2,13.1-52.8c0-12.2-6.5-22.3-20.1-22.3c-15.9,0-28.7,16.5-28.7,38.5c0,14,4.7,23.5,4.7,23.5s-16.3,69-19.1,81.1
		c-5.7,24.1-0.9,53.6-0.4,56.5c0.2,1.8,2.5,2.2,3.5,0.9c1.5-1.9,20.4-25.3,26.9-48.7c1.8-6.6,10.5-40.9,10.5-40.9
		c5.2,9.9,20.3,18.5,36.3,18.5c47.8,0,80.3-43.6,80.3-102C600.6,411.7,563.2,370.6,506.4,370.6z"/>
</g>
<g>
	<path id="twitter-icon_1_" fill="#FFFFFF" d="M629.8,419.8c-9.5,4.2-19.8,7.1-30.5,8.4c11-6.6,19.4-17,23.4-29.4
		c-10.3,6.1-21.6,10.5-33.8,12.9c-9.7-10.3-23.5-16.8-38.8-16.8c-34.3,0-59.5,32-51.8,65.3c-44.2-2.2-83.3-23.4-109.5-55.5
		c-13.9,23.9-7.2,55.1,16.4,71c-8.7-0.3-16.9-2.7-24.1-6.6c-0.6,24.6,17.1,47.6,42.6,52.8c-7.5,2-15.7,2.5-24,0.9
		c6.8,21.1,26.4,36.5,49.6,36.9c-22.3,17.5-50.5,25.3-78.7,22c23.5,15.1,51.5,23.9,81.5,23.9c98.7,0,154.4-83.3,151.1-158.1
		C613.7,439.8,622.7,430.5,629.8,419.8z"/>
</g>
</svg>
